#!OML:ASF F:\VICON\USERDATA\INSTALL\rory3\rory3.ASF
:FULLY-SPECIFIED
:DEGREES
469
root 2.6287 17.5404 -16.1627 -3.70545 0.46185 -2.97357
lowerback 20.6451 1.65599 5.62117
upperback 2.17146 3.97275 5.24419
thorax -9.20224 1.7856 1.43402
lowerneck -10.9301 -3.79365 -6.19739
upperneck 16.8461 -3.67639 -1.98993
head 7.05801 -2.32297 0.0308727
rclavicle 4.57205e-015 -2.22639e-014
rhumerus -43.1922 -43.8886 -51.7314
rradius 35.985
rwrist -41.8594
rhand -22.5019 -9.38306
rfingers 7.12502
rthumb 3.92413 -39.3267
lclavicle 4.57205e-015 -2.22639e-014
lhumerus -51.5648 14.6775 70.8407
lradius 59.2441
lwrist 16.0745
lhand -14.9199 52.611
lfingers 7.12502
lthumb 11.242 82.2898
rfemur 10.2991 3.10922 32.3163
rtibia 30.9871
rfoot -14.214 -9.22719
rtoes -0.757429
lfemur -28.4343 -3.86436 -18.2916
ltibia 25.8821
lfoot 18.5961 -7.70046
ltoes 13.5691
470
root 2.64116 17.5399 -16.4044 -3.37135 0.0262223 -3.3028
lowerback 21.0282 1.63886 5.84233
upperback 2.37627 4.03658 5.44516
thorax -9.18394 1.81177 1.5034
lowerneck -12.3528 -3.73095 -6.10055
upperneck 17.1797 -3.40251 -2.44323
head 7.40344 -2.24004 -0.137353
rclavicle -8.74653e-015 -4.45278e-014
rhumerus -42.4767 -43.8892 -52.454
rradius 37.4478
rwrist -44.8203
rhand -22.7101 -9.91848
rfingers 7.12502
rthumb 3.72306 -39.8657
lclavicle -8.74653e-015 -4.45278e-014
lhumerus -52.0474 15.8797 70.5193
lradius 59.0597
lwrist 16.5827
lhand -15.3237 52.8355
lfingers 7.12502
lthumb 10.8525 82.5351
rfemur 9.85213 3.2101 32.6779
rtibia 29.7293
rfoot -15.3547 -10.0437
rtoes 0.698191
lfemur -28.8655 -4.42999 -16.9003
ltibia 24.1875
lfoot 18.3631 -3.34296
ltoes 15.2674
471
root 2.65553 17.5495 -16.6361 -3.0316 -0.42646 -3.52789
lowerback 21.1025 1.62947 5.95018
upperback 2.2182 4.07999 5.54705
thorax -9.40186 1.82308 1.54112
lowerneck -11.4487 -3.55788 -5.86325
upperneck 16.7528 -3.25064 -2.69737
head 7.0928 -2.16059 -0.219721
rclavicle -5.92378e-014 -8.74653e-014
rhumerus -42.8805 -43.4207 -52.5241
rradius 38.9019
rwrist -47.6742
rhand -22.8368 -10.3105
rfingers 7.12502
rthumb 3.60069 -40.2598
lclavicle -5.92378e-014 -8.74653e-014
lhumerus -53.3449 16.779 69.739
lradius 58.3788
lwrist 16.9515
lhand -15.6229 52.5617
lfingers 7.12502
lthumb 10.5639 82.2762
rfemur 9.39598 3.11724 32.8019
rtibia 28.5509
rfoot -16.3116 -10.6457
rtoes 1.24663
lfemur -29.166 -4.77242 -15.756
ltibia 22.811
lfoot 16.2959 -2.90323
ltoes 2.06084
472
root 2.67303 17.5653 -16.8563 -2.67204 -0.84187 -3.53808
lowerback 20.7907 1.69257 5.81896
upperback 2.32974 4.09766 5.61568
thorax -9.12164 1.84593 1.69355
lowerneck -11.188 -3.496 -5.67
upperneck 16.5613 -3.16955 -3.02782
head 6.97482 -2.13238 -0.342333
rclavicle -1.43125e-014 -6.20208e-014
rhumerus -42.7615 -43.1663 -52.8909
rradius 40.312
rwrist -50.2283
rhand -22.9359 -10.8805
rfingers 7.12502
rthumb 3.50502 -40.8314
lclavicle -1.43125e-014 -6.20208e-014
lhumerus -54.0548 17.6586 69.2962
lradius 57.6583
lwrist 17.4095
lhand -16.1794 53.2273
lfingers 7.12502
lthumb 10.0271 82.9684
rfemur 8.88686 2.8133 32.5679
rtibia 27.4834
rfoot -17.0881 -10.8406
rtoes 1.80128
lfemur -29.3678 -5.17709 -14.8943
ltibia 21.9286
lfoot 13.1292 -3.48048
ltoes -14.0532
473
root 2.69635 17.5823 -17.0667 -2.43589 -1.39625 -3.30253
lowerback 21.3563 1.66439 5.55157
upperback 2.18434 4.05614 5.53225
thorax -9.60483 1.8205 1.75012
lowerneck -11.7554 -3.07555 -5.61336
upperneck 16.7824 -2.57755 -2.90506
head 7.13895 -1.84406 -0.267583
rclavicle 2.38542e-014 2.70347e-014
rhumerus -42.8291 -42.5342 -53.3075
rradius 41.7713
rwrist -52.3055
rhand -22.9509 -11.3701
rfingers 7.12502
rthumb 3.49049 -41.3213
lclavicle 2.38542e-014 2.70347e-014
lhumerus -55.1868 18.3999 68.6396
lradius 56.9489
lwrist 18.0289
lhand -16.3626 53.1412
lfingers 7.12502
lthumb 9.8503 82.8907
rfemur 8.38666 2.75657 32.0368
rtibia 26.6272
rfoot -17.642 -10.6816
rtoes 3.94592
lfemur -29.4564 -5.51121 -14.321
ltibia 21.6328
lfoot 10.2142 -4.06445
ltoes -19.6739
474
root 2.71066 17.5968 -17.2785 -2.28369 -1.73799 -3.22705
lowerback 21.1223 1.61895 5.41319
upperback 2.47251 3.90966 5.48003
thorax -9.16008 1.76667 1.81758
lowerneck -11.4609 -2.93888 -5.54864
upperneck 16.0718 -2.46702 -2.81579
head 6.85433 -1.76018 -0.225981
rclavicle 5.56597e-015 4.13472e-014
rhumerus -42.2901 -42.6215 -53.9083
rradius 42.8085
rwrist -53.9968
rhand -22.2428 -11.3676
rfingers 7.12502
rthumb 4.17429 -41.3064
lclavicle 5.56597e-015 4.13472e-014
lhumerus -55.5532 19.0135 68.3432
lradius 56.1746
lwrist 18.6372
lhand -16.5456 53.5182
lfingers 7.12502
lthumb 9.6738 83.2761
rfemur 7.84187 2.92762 31.8919
rtibia 25.9327
rfoot -18.0484 -10.927
rtoes 5.30348
lfemur -29.5816 -6.00061 -13.5421
ltibia 21.8222
lfoot 7.28131 -3.6387
ltoes -22.212
475
root 2.68281 17.592 -17.5347 -2.23238 -0.463445 -3.35021
lowerback 21.7493 1.05809 5.12102
upperback 2.25797 3.19871 5.59748
thorax -9.76509 1.43197 2.31023
lowerneck -11.5729 -2.76596 -4.91678
upperneck 16.2408 -2.24143 -3.35642
head 6.90967 -1.66542 -0.484744
rclavicle -2.0276e-014 -7.95139e-015
rhumerus -42.34 -42.269 -54.1382
rradius 43.8566
rwrist -55.4994
rhand -20.9378 -11.2933
rfingers 7.12502
rthumb 5.43438 -41.2036
lclavicle -2.0276e-014 -7.95139e-015
lhumerus -56.4412 19.3195 67.9191
lradius 55.3434
lwrist 19.2573
lhand -16.8847 53.9789
lfingers 7.12502
lthumb 9.34657 83.7517
rfemur 6.96703 2.57447 32.4426
rtibia 25.6295
rfoot -18.5056 -12.2094
rtoes 6.53643
lfemur -30.116 -6.41604 -12.9637
ltibia 22.3209
lfoot 5.809 -4.51969
ltoes -24.982
476
root 2.72302 17.6264 -17.6962 -2.35782 -2.2375 -3.06114
lowerback 22.0273 1.4281 4.70768
upperback 1.93715 3.61472 5.43578
thorax -10.2951 1.6294 2.23956
lowerneck -10.3693 -2.55458 -4.23929
upperneck 16.5651 -2.02479 -4.03333
head 6.78515 -1.57523 -0.777936
rclavicle -9.14409e-015 -4.77083e-015
rhumerus -43.7303 -40.8937 -53.841
rradius 45.4878
rwrist -56.999
rhand -19.931 -11.24
rfingers 7.12502
rthumb 6.40644 -41.1231
lclavicle -9.14409e-015 -4.77083e-015
lhumerus -58.5001 19.0927 67.1477
lradius 54.5438
lwrist 19.8157
lhand -17.0008 53.9679
lfingers 7.12502
lthumb 9.23459 83.7457
rfemur 6.6997 3.38769 31.7228
rtibia 25.3876
rfoot -18.6492 -11.4522
rtoes 7.46579
lfemur -29.4812 -6.63712 -12.2856
ltibia 23.2515
lfoot 2.30929 -3.62618
ltoes -26.2668
477
root 2.74135 17.628 -17.9338 -2.24978 -3.27868 -3.0567
lowerback 22.3468 1.67481 4.54594
upperback 2.50607 3.86414 5.36766
thorax -9.83612 1.75843 2.17077
lowerneck -12.276 -2.52639 -3.79534
upperneck 16.8644 -1.88826 -4.32743
head 7.2084 -1.53426 -0.966298
rclavicle 3.22031e-014 5.24792e-014
rhumerus -42.6286 -40.9822 -55.1192
rradius 47.1586
rwrist -58.4238
rhand -19.7567 -11.1005
rfingers 7.12502
rthumb 6.57465 -40.9785
lclavicle 3.22031e-014 5.24792e-014
lhumerus -57.7628 19.8074 67.2291
lradius 53.0334
lwrist 19.7936
lhand -16.8136 53.7636
lfingers 7.12502
lthumb 9.41519 83.5333
rfemur 5.70748 3.61108 31.4437
rtibia 25.5693
rfoot -18.311 -10.9671
rtoes 7.50099
lfemur -29.4625 -5.8673 -11.7747
ltibia 24.1145
lfoot 0.588102 -3.81538
ltoes -28.3419
478
root 2.74182 17.6024 -18.1388 -2.34675 -2.59034 -2.966
lowerback 22.6858 1.28485 4.25386
upperback 2.46975 3.32157 5.43469
thorax -10.0748 1.51307 2.57261
lowerneck -11.9064 -2.43412 -3.95015
upperneck 16.4754 -1.81455 -4.08961
head 7.02099 -1.47496 -0.845989
rclavicle 4.77083e-014 6.36111e-014
rhumerus -42.6828 -40.2902 -55.3455
rradius 48.5983
rwrist -59.5105
rhand -19.6439 -10.8025
rfingers 7.12502
rthumb 6.68359 -40.677
lclavicle 4.77083e-014 6.36111e-014
lhumerus -58.3327 19.9214 67.2377
lradius 51.9018
lwrist 20.1481
lhand -16.768 54.463
lfingers 7.12502
lthumb 9.45917 84.2308
rfemur 5.23047 2.86485 31.4905
rtibia 25.6657
rfoot -17.9248 -11.9899
rtoes 3.90663
lfemur -29.6802 -5.41432 -11.7985
ltibia 25.4409
lfoot -0.156844 -5.31604
ltoes -27.8436
479
root 2.74037 17.6577 -18.3227 -2.67188 -2.35288 -2.67642
lowerback 22.9521 1.04221 3.76367
upperback 2.64416 2.88719 5.417
thorax -10.0358 1.32902 2.96356
lowerneck -12.2593 -2.17399 -3.83041
upperneck 16.6106 -1.42968 -4.23538
head 7.12574 -1.30328 -0.882435
rclavicle -3.97569e-015 -3.33958e-014
rhumerus -42.5811 -39.8054 -55.6271
rradius 49.9172
rwrist -60.116
rhand -18.6762 -10.7291
rfingers 7.12502
rthumb 7.61771 -40.5719
lclavicle -3.97569e-015 -3.33958e-014
lhumerus -58.7351 20.0223 67.401
lradius 50.9764
lwrist 20.6599
lhand -16.5905 54.9746
lfingers 7.12502
lthumb 9.63047 84.7345
rfemur 4.37573 3.13618 31.2276
rtibia 26.1851
rfoot -18.8989 -11.8421
rtoes 8.03645
lfemur -29.123 -4.76074 -12.0527
ltibia 26.6437
lfoot -0.733225 -6.74393
ltoes -29.3722
480
root 2.75029 17.6536 -18.5021 -2.91231 -2.63575 -2.2998
lowerback 22.4449 0.952037 2.85453
upperback 1.83567 2.57327 5.4321
thorax -10.7046 1.22275 3.6157
lowerneck -6.55562 -1.86137 -3.81454
upperneck 14.8367 -1.39942 -4.38164
head 5.56536 -1.19237 -0.838058
rclavicle -1.27222e-014 -5.725e-014
rhumerus -45.303 -37.5345 -54.2499
rradius 51.4005
rwrist -60.5786
rhand -17.7314 -10.8703
rfingers 7.12502
rthumb 8.52959 -40.6781
lclavicle -1.27222e-014 -5.725e-014
lhumerus -61.7621 19.1205 66.6046
lradius 49.9383
lwrist 20.4373
lhand -15.3078 54.5424
lfingers 7.12502
lthumb 10.8678 84.2412
rfemur 3.93597 3.36822 30.8165
rtibia 26.6563
rfoot -18.4827 -11.5789
rtoes 12.8687
lfemur -28.8247 -4.00022 -12.3009
ltibia 28.3326
lfoot -1.36893 -7.85105
ltoes -30.4028
481
root 2.73914 17.697 -18.7261 -3.06963 -2.35671 -2.1683
lowerback 22.8835 1.07395 2.8192
upperback 3.27986 2.62447 5.23828
thorax -9.30947 1.24095 3.37794
lowerneck -12.7096 -2.05351 -3.26449
upperneck 16.0062 -1.37568 -4.25993
head 7.00028 -1.23542 -0.976056
rclavicle -7.95139e-015 -3.18055e-015
rhumerus -42.6688 -40.314 -55.7712
rradius 52.2218
rwrist -60.4521
rhand -17.0682 -10.9884
rfingers 7.12502
rthumb 9.1695 -40.7691
lclavicle -7.95139e-015 -3.18055e-015
lhumerus -57.9535 19.7159 67.8523
lradius 47.9273
lwrist 19.5602
lhand -14.9423 53.6321
lfingers 7.12502
lthumb 11.2204 83.312
rfemur 2.63992 3.39532 30.7856
rtibia 27.3884
rfoot -18.0788 -12.2639
rtoes 12.417
lfemur -28.7228 -3.45092 -12.2919
ltibia 29.9537
lfoot -1.86582 -9.50089
ltoes -31.5722
